<svg width="30" height="30" viewBox="0 0 30 30" fill="none" xmlns="http://www.w3.org/2000/svg">
<path d="M26.7025 11.9151C26.626 11.6898 26.4852 11.4919 26.2976 11.3457C26.1099 11.1996 25.8835 11.1116 25.6464 11.0926L18.7102 10.5415L15.7087 3.89723C15.6131 3.68324 15.4576 3.50148 15.261 3.37389C15.0644 3.24631 14.8351 3.17835 14.6007 3.17822C14.3663 3.17809 14.1369 3.2458 13.9402 3.37317C13.7434 3.50054 13.5877 3.68213 13.4919 3.89602L10.4904 10.5415L3.55418 11.0926C3.32113 11.1111 3.09834 11.1963 2.91245 11.338C2.72656 11.4798 2.58546 11.6721 2.50601 11.892C2.42656 12.1118 2.41214 12.3499 2.46446 12.5778C2.51679 12.8056 2.63365 13.0136 2.80106 13.1767L7.92688 18.1736L6.11404 26.0235C6.059 26.2611 6.07664 26.5098 6.16468 26.7373C6.25272 26.9647 6.40709 27.1605 6.60777 27.2991C6.80844 27.4378 7.04615 27.5129 7.29005 27.5147C7.53395 27.5166 7.77278 27.4451 7.97554 27.3096L14.6003 22.8931L21.225 27.3096C21.4323 27.4471 21.6767 27.518 21.9254 27.5125C22.1741 27.5071 22.4152 27.4256 22.6162 27.279C22.8172 27.1325 22.9685 26.9279 23.0498 26.6928C23.131 26.4577 23.1383 26.2033 23.0707 25.9639L20.8454 18.1772L26.3642 13.2108C26.7256 12.8848 26.8582 12.3762 26.7025 11.9151Z" fill="#F3CD03"/>
</svg>
