<svg width="30" height="30" viewBox="0 0 30 30" fill="none" xmlns="http://www.w3.org/2000/svg">
<path d="M8.72887 18.1735L6.91604 26.0234C6.8599 26.2611 6.87676 26.5102 6.9644 26.7382C7.05204 26.9662 7.20639 27.1624 7.40729 27.3013C7.6082 27.4402 7.84632 27.5153 8.09055 27.5167C8.33479 27.5182 8.57378 27.4459 8.77632 27.3094L15.4011 22.8929L22.0258 27.3094C22.2331 27.447 22.4775 27.5179 22.7262 27.5124C22.9749 27.507 23.2159 27.4255 23.417 27.2789C23.618 27.1324 23.7693 26.9278 23.8505 26.6927C23.9318 26.4576 23.9391 26.2032 23.8715 25.9638L21.6462 18.1771L27.165 13.2107C27.3418 13.0515 27.468 12.8441 27.5281 12.6139C27.5882 12.3838 27.5795 12.1411 27.5031 11.9158C27.4268 11.6906 27.286 11.4927 27.0984 11.3465C26.9107 11.2004 26.6843 11.1125 26.4472 11.0937L19.511 10.5413L16.5095 3.89711C16.4137 3.68317 16.2582 3.5015 16.0615 3.37402C15.8648 3.24654 15.6354 3.17871 15.4011 3.17871C15.1667 3.17871 14.9373 3.24654 14.7407 3.37402C14.544 3.5015 14.3884 3.68317 14.2927 3.89711L11.2912 10.5413L4.35496 11.0925C4.12191 11.1109 3.89912 11.1962 3.71323 11.3379C3.52735 11.4797 3.38624 11.672 3.30679 11.8919C3.22734 12.1117 3.21292 12.3498 3.26524 12.5777C3.31757 12.8055 3.43443 13.0135 3.60184 13.1766L8.72887 18.1735ZM12.2 12.9102C12.4172 12.8931 12.6258 12.8179 12.8039 12.6924C12.982 12.567 13.123 12.3959 13.2123 12.1972L15.4011 7.35366L17.5899 12.1972C17.6791 12.3959 17.8202 12.567 17.9983 12.6924C18.1764 12.8179 18.385 12.8931 18.6021 12.9102L23.4347 13.2934L19.455 16.8753C19.1095 17.1868 18.972 17.6661 19.0985 18.1139L20.623 23.4489L16.0775 20.4182C15.878 20.2843 15.6432 20.2128 15.4029 20.2128C15.1626 20.2128 14.9278 20.2843 14.7283 20.4182L9.97839 23.5852L11.2559 18.0542C11.3027 17.8508 11.2964 17.6388 11.2376 17.4385C11.1788 17.2382 11.0695 17.0564 10.9201 16.9106L7.22386 13.3068L12.2 12.9102Z" fill="#F3CD03"/>
</svg>
